<svg width="27" height="27" viewBox="0 0 27 27" fill="none" xmlns="http://www.w3.org/2000/svg">
<g clip-path="url(#clip0)">
<path d="M13.2053 23.6825C13.2053 22.2607 12.0528 21.1082 10.6313 21.1082C9.20946 21.1082 8.05695 22.2607 8.05695 23.6822C8.05695 25.104 9.20946 26.2565 10.6313 26.2565C12.052 26.255 13.2038 25.1035 13.2053 23.6825ZM8.96999 23.6825C8.96999 22.7648 9.71362 22.0212 10.6313 22.0212C11.5486 22.0212 12.2923 22.7648 12.2923 23.6822C12.2923 24.5998 11.5486 25.3435 10.6313 25.3435C9.71413 25.3424 8.97101 24.5993 8.96999 23.6825Z" fill="black"/>
<path d="M20.163 26.2565C21.5848 26.2568 22.7373 25.1042 22.7373 23.6825C22.7375 22.2607 21.585 21.1082 20.1632 21.1082C18.7414 21.1082 17.5889 22.2607 17.5889 23.6825C17.5907 25.1032 18.742 26.2547 20.163 26.2565ZM20.163 22.0212C21.0804 22.0212 21.8242 22.7648 21.8242 23.6822C21.8245 24.5996 21.0806 25.3435 20.1632 25.3435C19.2459 25.3435 18.502 24.5998 18.502 23.6825C18.503 22.7656 19.2461 22.0225 20.163 22.0212Z" fill="black"/>
<path d="M0.456519 1.63059H3.24124C4.15759 1.62702 4.93892 2.29422 5.07852 3.20013L7.28291 17.1247C7.49104 18.4749 8.65578 19.4697 10.022 19.4644H23.6478C23.8998 19.4644 24.1043 19.2598 24.1043 19.0079C24.1043 18.7557 23.8998 18.5514 23.6478 18.5514H10.022C9.10567 18.5549 8.32434 17.8875 8.18474 16.9818L7.81 14.6144H21.7652C22.9467 14.6139 23.9983 13.8654 24.3856 12.7493L26.9746 5.27688C27.0233 5.13728 27.0011 4.9829 26.9155 4.8624C26.8297 4.74216 26.6911 4.67057 26.5433 4.67057H6.23562L5.98035 3.05721C5.77222 1.70702 4.60748 0.712201 3.24124 0.717551H0.456519C0.204313 0.717551 0 0.922118 0 1.17407C0 1.42628 0.204313 1.63059 0.456519 1.63059ZM25.9019 5.58386L23.523 12.4502C23.2631 13.199 22.5577 13.7011 21.7652 13.7013H7.6653L6.38006 5.58361L25.9019 5.58386Z" fill="black"/>
</g>
<defs>
<clipPath id="clip0">
<rect width="27" height="27" fill="white"/>
</clipPath>
</defs>
</svg>
