<svg width="31" height="31" viewBox="0 0 31 31" fill="none" xmlns="http://www.w3.org/2000/svg">
<g clip-path="url(#clip0)">
<path d="M17.8914 7.86139C17.672 7.86139 17.4781 7.70321 17.4406 7.47921C17.3995 7.2296 17.5677 6.99553 17.8164 6.95347L27.7047 5.30314C27.9544 5.26382 28.1893 5.42931 28.2314 5.67892C28.2725 5.92761 28.1043 6.16259 27.8556 6.20465L17.9673 7.85499C17.9426 7.85956 17.917 7.86139 17.8914 7.86139Z" fill="black"/>
<path d="M2.39097 10.448C2.17153 10.448 1.9777 10.2899 1.94021 10.0659C1.89907 9.81716 2.0673 9.58218 2.316 9.54012L12.2811 7.87698C12.5335 7.83218 12.7657 8.00407 12.8078 8.25277C12.8489 8.50146 12.6807 8.73644 12.432 8.7785L2.46686 10.4416C2.44126 10.4462 2.41657 10.448 2.39097 10.448Z" fill="black"/>
<path d="M24.5366 22.1357C21.4298 22.1357 18.9017 19.6067 18.9017 16.4999C18.9017 16.2475 19.1065 16.0427 19.3588 16.0427H29.7153C29.9676 16.0427 30.1724 16.2475 30.1724 16.4999C30.1724 19.6076 27.6444 22.1357 24.5366 22.1357ZM19.8379 16.957C20.0683 19.3471 22.0881 21.2214 24.5366 21.2214C26.986 21.2214 29.0049 19.3471 29.2362 16.957H19.8379Z" fill="black"/>
<path d="M19.3589 16.9569C19.2876 16.9569 19.2153 16.9396 19.1477 16.9048C18.9237 16.7878 18.8377 16.5117 18.9538 16.2877L24.1316 6.36643C24.2898 6.06471 24.7844 6.06471 24.9426 6.36643L30.1213 16.2877C30.2374 16.5117 30.1515 16.7878 29.9275 16.9048C29.7044 17.0209 29.4273 16.9341 29.3103 16.711L24.5376 7.56693L19.7648 16.711C19.6825 16.8673 19.5235 16.9569 19.3589 16.9569Z" fill="black"/>
<path d="M5.63584 25.0935C2.52808 25.0935 0 22.5645 0 19.4576C0 19.2053 0.204807 19.0005 0.457158 19.0005H10.8136C11.066 19.0005 11.2708 19.2053 11.2708 19.4576C11.2708 22.5645 8.74269 25.0935 5.63584 25.0935ZM0.936259 19.9148C1.16667 22.3048 3.18639 24.1792 5.63584 24.1792C8.08438 24.1792 10.1041 22.3048 10.3345 19.9148H0.936259Z" fill="black"/>
<path d="M10.8134 19.9147C10.6488 19.9147 10.4897 19.8251 10.4074 19.6688L5.6347 10.5247L0.861975 19.6688C0.744942 19.8928 0.468819 19.9778 0.244812 19.8626C0.0208045 19.7456 -0.0651412 19.4694 0.0509769 19.2454L5.22966 9.32419C5.38784 9.02247 5.88248 9.02247 6.04066 9.32419L11.2184 19.2454C11.3345 19.4694 11.2486 19.7456 11.0246 19.8626C10.9569 19.8973 10.8847 19.9147 10.8134 19.9147Z" fill="black"/>
<path d="M15.0863 11.1183C13.2961 11.1183 11.8396 9.66178 11.8396 7.87155C11.8396 6.08224 13.2961 4.62573 15.0863 4.62573C16.8765 4.62573 18.333 6.08224 18.333 7.87155C18.333 9.6627 16.8765 11.1183 15.0863 11.1183ZM15.0863 5.54096C13.7999 5.54096 12.7539 6.58694 12.7539 7.87247C12.7539 9.15799 13.7999 10.2049 15.0863 10.2049C16.3727 10.2049 17.4187 9.15799 17.4187 7.87247C17.4187 6.58694 16.3727 5.54096 15.0863 5.54096Z" fill="black"/>
<path d="M15.0863 28.311C14.834 28.311 14.6292 28.1062 14.6292 27.8538V10.661C14.6292 10.4087 14.834 10.2039 15.0863 10.2039C15.3387 10.2039 15.5435 10.4087 15.5435 10.661V27.8538C15.5435 28.1062 15.3387 28.311 15.0863 28.311Z" fill="black"/>
<path d="M15.0863 5.5409C14.834 5.5409 14.6292 5.33609 14.6292 5.08374V3.97376C14.6292 3.72141 14.834 3.5166 15.0863 3.5166C15.3387 3.5166 15.5435 3.72141 15.5435 3.97376V5.08374C15.5435 5.33609 15.3387 5.5409 15.0863 5.5409Z" fill="black"/>
<path d="M21.1171 28.311H9.05542C8.80307 28.311 8.59827 28.1062 8.59827 27.8539C8.59827 27.6015 8.80307 27.3967 9.05542 27.3967H21.1171C21.3694 27.3967 21.5742 27.6015 21.5742 27.8539C21.5742 28.1062 21.3703 28.311 21.1171 28.311Z" fill="black"/>
</g>
<defs>
<clipPath id="clip0">
<rect width="30.1724" height="30.1724" fill="white" transform="translate(0 0.827637)"/>
</clipPath>
</defs>
</svg>
